[center][img]http://img833.imageshack.us/img833/268/wwetop50superstarsofall.jpg[/img][/center]

[center][img]http://leetleech.org/images/48874973695367351744.png[/img][/center]

[center]Format                           : AVI
Format/Info                      : Audio Video Interleave
Format profile                   : OpenDML
File size                        : 1.19 GiB
Duration                         : 1h 19mn
Overall bit rate                 : 2 146 Kbps
Writing application              : Lavf52.47.0

Video
ID                               : 0
Format                           : xvid
Codec ID                         : xvid
Duration                         : 1h 19mn
Bit rate                         : 2 000 Kbps
Width                            : 640 pixels
Height                           : 360 pixels
Display aspect ratio             : 16:9
Frame rate                       : 25.000 fps
Bits/(Pixel*Frame)               : 0.347
Stream size                      : 1.11 GiB (93%)

Audio
ID                               : 1
Format                           : MPEG Audio
Format version                   : Version 1
Format profile                   : Layer 3
Mode                             : Joint stereo
Codec ID                         : 55
Codec ID/Hint                    : MP3
Duration                         : 16mn 29s
Bit rate mode                    : Constant
Bit rate                         : 128 Kbps
Channel(s)                       : 2 channels
Sampling rate                    : 44.1 KHz
Stream size                      : 15.1 MiB (1%)
Alignment                        : Aligned on interleaves
Interleave, duration             : 126 ms (3.16 video frames)
Writing library                  : LAME3.98.2

[/center]


[center][url]http://www.amazon.com/WWE-Top-Superstars-All-Time/dp/B0041SI7ES[/url][/center]


[center]It's a timeless debate for sports entertainment fans everywhere. Who is the greatest of all time? Better yet, what superstars make up your top 10, or if you are a real student of history, 20, 40, or 50? The debates and cross-generational comparisons can go on forever, as fans compare Stone Cold to the Hulkster, Ric Flair to Shawn Michaels, this generation s giant (Big Show) to the all-time Giant (Andre), or ask whether John Cena and Randy Orton have already done enough to cement a permanent legacy in this industry. Now, with the 50 Greatest Superstars in WWE History fans can enjoy the first-ever countdown of the biggest superstars in history, complete with highlights of the top 50, commentary from today s WWE Superstars explaining their choices, and more. [/center]


[center][img]http://leetleech.org/images/95521316153253938506.png[/img][/center]

[center][img]http://img407.imageshack.us/img407/2091/vlcsnap2011010307h38m18.png[/img][/center]

[center][img]http://img717.imageshack.us/img717/8018/vlcsnap2011010307h39m53.png[/img][/center]

[center][img]http://img703.imageshack.us/img703/6506/vlcsnap2011010307h40m30.png[/img][/center]



[center]Came across these vobs on my travels some a right mess.Anyway this is a 3 disk set.I have the 2nd near enough ready to go up and i'll sort the 3rd out ASAP .Enjoy ! [/center]


[center]Greetz to Imagine ,Flawl3ss ,Santi ,Vision ,Kingdom,BDK,DiGiTALiNK,LEGION,Classified,THC,WBZ,Rx ,Feel Free and to all who share[/center]


[center][img]http://signatures.mylivesignature.com/54488/364/63C91F8D3F952BFA8B83650965539EC2.png[/img][/center]

